<?xml version="1.0" encoding="utf-8"?>
<!-- Generator: Adobe Illustrator 24.1.1, SVG Export Plug-In . SVG Version: 6.00 Build 0)  -->
<svg version="1.1" id="Layer_1" xmlns="http://www.w3.org/2000/svg" xmlns:xlink="http://www.w3.org/1999/xlink" x="0px" y="0px"
	 viewBox="0 0 283.5 283.5" style="enable-background:new 0 0 283.5 283.5;" xml:space="preserve">
<style type="text/css">
	.st0{fill-rule:evenodd;clip-rule:evenodd;fill:#5173B1;}
</style>
<g id="Ebene_x0020_1">
	<path class="st0" d="M141.7,11.8c-71.6,0-129.6,58-129.6,129.6c0,57.3,37.1,105.9,88.7,123c6.5,1.2,8.5-2.7,8.5-6.1
		c0-3.1,0.1-11.7,0-22.5c-36.1,7.8-43.5-17.1-43.5-17.1c-5.9-15-14.4-19-14.4-19c-11.8-8,0.9-7.9,0.9-7.9
		c13,0.9,19.9,13.4,19.9,13.4c11.6,19.8,30.3,14.1,37.7,10.8c1.2-8.4,4.5-14.1,8.2-17.3c-28.8-3.3-59-14.4-59-64.1
		c0-14.2,5-25.7,13.3-34.8c-1.3-3.3-5.8-16.5,1.3-34.3c0,0,10.9-3.5,35.6,13.3c10.3-2.9,21.4-4.3,32.5-4.4c11,0,22.1,1.5,32.5,4.4
		c24.8-16.8,35.6-13.3,35.6-13.3c7.1,17.9,2.6,31,1.3,34.3c8.3,9.1,13.3,20.6,13.3,34.8c0,49.8-30.3,60.8-59.2,64
		c4.7,4,8.9,11.8,8.9,23.9c0,16.2,0,31.6,0,35.9c0,3.5,2.1,7.3,8.7,6c51.5-17.2,88.6-65.7,88.6-123
		C271.4,69.8,213.3,11.8,141.7,11.8L141.7,11.8z M141.7,0C220,0,283.5,63.5,283.5,141.7c0,78.3-63.5,141.7-141.7,141.7
		S0,220,0,141.7C0,63.5,63.5,0,141.7,0z"/>
</g>
</svg>
